<svg xmlns="http://www.w3.org/2000/svg" version="1.1" xmlns:xlink="http://www.w3.org/1999/xlink" xmlns:svgjs="http://svgjs.dev/svgjs" width="1000" height="1125" viewBox="0 0 1000 1125"><g transform="matrix(1,0,0,1,0,0)"><svg xmlns="http://www.w3.org/2000/svg" version="1.1" xmlns:xlink="http://www.w3.org/1999/xlink" xmlns:svgjs="http://svgjs.com/svgjs" viewBox="0 0 320 360" data-background-color="#7b8159" preserveAspectRatio="xMidYMid meet" height="1125" width="1000"><defs></defs><g id="tight-bounds" transform="matrix(1,0,0,1,0,0)"><svg viewBox="0 0 320 360" height="360" width="320"><g><svg xmlns="http://www.w3.org/2000/svg" version="1.1" xmlns:xlink="http://www.w3.org/1999/xlink" xmlns:svgjs="http://svgjs.com/svgjs"></svg></g><g><svg viewBox="0 0 320 360" height="360" width="320"><g><path d="M219.58 41.008c0.707 0 6.365 2.829 9.547 3.89-1.061 0.354-3.536-0.707-6.365-1.768 0.707 0 2.122 0.354 3.536 1.06-0.707-0.707-6.011-2.475-6.718-3.182M166.895 30.047c1.061-0.354 13.436 1.414 19.094 1.768 0.354-0.354-0.707-0.354-2.122-0.707 1.768-0.354 5.304 0.707 7.779 1.06-7.425 0.354-15.558-1.768-22.629-1.06-2.475 0-0.707-0.707-2.122-1.061M156.641 30.047c6.365 0 11.315 0 2.121 0.707-1.061-0.354-2.475-0.354-2.121-0.707M256.707 59.395c0.707 0 3.536 3.182 4.95 4.243-0.354 0.354-3.182-2.475-4.596-3.536 0.354 0.354 0 0-0.354-0.707M249.635 54.798c-2.829-2.475-3.889-2.475-4.243-3.889 2.475 1.414 4.243 2.829 4.243 3.889M204.022 32.522c0.354-0.354 1.061 0.354 2.829 0.707-2.122-0.354-1.768 0-1.061 0.707-2.475-0.354-3.182-0.707-2.475-1.414 1.414 0.707 1.768 0.354 0.707 0M103.602 36.765c0-0.354 1.414-1.061 2.475-1.414-1.061 0.707-0.707 1.061 1.061 0.353 0 0.354-2.122 1.061-3.536 1.768 0.707-0.354 1.414-1.414 0-0.707M211.094 28.986c-1.061 0.354-4.95-1.768-8.84-2.475-2.122-0.707 8.486 1.768 8.84 2.475M2.475 203.66c2.122 8.84 0.707 8.486 0 0M2.829 150.621c0.354-1.414 0.707-5.304 1.06-4.95-1.061 8.486-2.829 12.376-3.182 18.74 1.061-5.657-0.354 3.182-0.707 5.304 0.354 2.829 0.354-1.768 1.061-1.06 0.707 1.061-1.414 15.912-0.707 7.779-0.707 7.425 0 15.558 1.414 17.679-1.768 11.315 7.072 36.773 8.84 42.077 0.354 0.354 0-1.768 0.707-0.353 0.707 4.597 3.889 7.779 4.95 12.729 1.061 1.414 5.304 9.193 6.011 10.962 1.414 2.829 2.122 2.475 3.536 5.303 4.243 8.133 10.961 15.912 17.326 23.337 20.508 24.044 51.978 43.845 86.984 50.918 35.006 7.425 71.779 2.122 100.419-11.669 1.768-1.061 1.414-1.414 3.536-2.122 9.901-3.182 21.923-13.436 28.641-17.326 3.182-3.536 11.669-9.547 12.73-13.082 6.011-4.95 12.022-13.083 15.204-18.387 1.768-2.829 3.182-2.829 3.889-4.597-0.354 0 5.657-7.425 7.426-11.668-0.707 0-1.768 2.122-1.768 0 12.729-24.398 19.801-57.282 15.911-79.912 0.707 27.934-6.365 59.05-19.801 78.851-6.011 12.729-18.387 26.519-29.701 36.42-1.768 1.768-3.536 3.889-5.658 5.304-6.718 5.657-14.144 10.254-21.922 14.497-18.387 10.254-38.895 19.094-62.94 19.447 41.37-3.536 78.497-24.398 99.006-49.856-15.558 15.204-22.276 21.215-39.602 30.055-1.414 2.475-13.083 7.425-20.862 9.547 4.597-2.122 14.144-5.657 17.326-8.486-25.812 12.376-54.453 19.448-81.326 15.558 10.254 0 24.751 0.354 38.541-2.121 2.122-0.707 3.182-1.414 5.658-1.768 26.873-6.011 52.685-19.094 71.072-37.481-10.608 9.547-26.519 20.862-36.774 24.398 9.547-5.304 26.873-15.558 32.53-23.337-11.315 11.315-32.53 22.63-45.966 27.58-2.122 0.354 1.414-1.414-2.122 0-4.243 1.061-2.475 1.061-3.536 1.768-16.265 4.597-35.006 8.486-50.563 7.072-2.829-0.354-3.889-1.061-6.365-1.061-2.829-0.354-5.304-0.354-8.486-0.354-12.376-1.414-25.812-6.365-35.713-10.607-5.304-2.475-10.608-4.243-15.912-7.426-4.243-2.475-7.779-5.304-11.314-8.132-13.436-9.901-24.751-19.801-35.36-33.945-19.094-26.519-28.994-59.757-27.58-92.641 1.414-32.884 14.497-65.061 35.359-88.752-1.061 1.061 1.414-2.475 3.536-4.596 0 0.707-0.354 1.768 2.122-0.707 2.122-2.475-0.707-0.707 0.353-2.122 21.923-24.044 60.111-43.492 99.36-44.199 1.414-1.061 3.889-2.475 6.718-1.768 0 0.354-1.768 0.354-1.768 0.354 3.889-0.354 7.425-0.354 9.193 0.353 0.354-0.354-1.414-0.707 0-0.707 2.475 0.707 3.182 0 4.597 0.707-1.061 0-2.122 0-2.829 0.354 8.84 0 14.497 2.122 23.337 2.829-4.597-1.061-5.657-1.061-9.193-2.122 3.889 0.707 5.657 1.414 7.425 1.061-0.707 0-0.354-1.061 0.354-0.707 7.072 1.768 7.779 2.475 15.204 4.95 0.707-0.707-3.182-1.061-4.243-2.122 7.072 2.475 13.436 4.243 17.68 7.072-1.414-1.061-5.657-2.475-8.84-3.889-0.354 0.354 1.061 0.707 1.414 1.414-3.536-1.768-8.486-3.536-13.436-4.243 4.243 1.061 7.072 2.475 8.84 3.182-3.889-0.707-8.84-3.182-14.498-4.243 9.193 2.829 26.519 9.193 37.127 14.851-3.889-2.475-8.486-4.243-10.961-5.657 2.122 0.354 4.597 1.768 4.597 1.06 2.475 1.061 5.657 3.536 7.425 3.89-3.182-2.122-9.547-5.304-11.668-6.365 26.519 12.022 50.21 32.177 65.414 57.989 1.414 2.475 3.536 8.133 5.304 8.84-0.354-1.768-1.768-2.829-3.182-5.657 0.707 0 0.707-1.061 0-2.122-1.414-1.768 0 1.414-1.415-0.354-6.365-11.669-14.144-21.923-26.165-33.237 6.718 6.365 1.768 1.768 0.353-0.354 9.193 8.133 19.801 21.923 24.398 28.995-0.707-1.061-1.061-1.768-0.707-1.768 8.486 14.497 13.79 27.58 19.094 46.32 0.354 0.354 0-1.414 0.707-0.353 3.536 14.851 4.597 27.227 4.243 38.541 2.829-19.094-3.536-48.796-14.851-72.133-1.414-2.829-1.414-0.707-2.829-3.889 0-1.061-1.061-3.182-1.768-4.597-14.144-23.337-31.47-39.956-51.978-53.038 1.414 0.707 4.243 2.829 4.244 2.475-38.188-25.105-82.387-28.641-118.807-20.862-2.475 1.061-3.536 2.122-6.365 3.536 5.304-1.768 8.486-2.122 13.437-3.183 1.061-1.061-4.597 0.354-2.122-0.707 0.354 0.354 4.95-0.707 6.011-0.353 0 0.354-1.414 0.707-1.768 1.06 11.669-2.475 23.691-2.829 33.945-2.121-6.011 0.354-16.972-0.707-20.508 1.061 3.536-0.354 8.486-0.707 11.668-0.354-4.243 0-12.022 0.354-15.558 0.707-0.354-0.354 5.657-1.061 1.768-1.06-1.768 0.354-4.597 0.354-5.657 1.414-30.409 2.829-60.111 18.74-80.973 37.481-4.243 3.536-9.193 7.425-12.375 11.314-7.779 8.84-12.729 17.68-18.387 25.459 3.536-7.425 11.315-18.74 20.508-28.287 9.193-9.547 19.094-17.68 24.398-21.923 0 1.414 8.486-5.304 11.669-7.425-2.122 1.768 1.414-0.707 2.121-0.354 11.315-6.718 20.508-9.193 30.763-13.083-2.475 0.707-4.597 1.414-4.951 1.061 2.475-0.707 3.889-1.414 3.536-1.768-9.901 2.829-25.459 9.547-37.834 16.972 22.276-15.204 50.564-24.398 78.497-24.751 27.934-0.707 55.16 6.365 76.729 17.68 14.497 6.365 28.287 18.033 39.249 29.348 3.182 2.829 0.707-0.707 5.304 4.243-1.414-0.707-2.475-1.414-0.707 0.707 2.829 3.182-0.707-2.475 3.889 3.182-0.354 0-1.768-1.768-1.768-1.061 12.376 10.961 21.923 30.762 27.58 43.846-1.414-5.304-4.95-12.729-7.779-18.033 8.486 15.558 11.315 24.751 14.851 38.541 1.414 1.061-0.707-4.95 0.707-2.121 0.354 2.122 0.707 8.84 2.122 9.9-1.061-6.718-2.829-14.851-4.243-16.265 1.061 0.707-1.768-8.133-3.536-10.254-0.707-5.657-5.657-15.558-9.901-22.984-15.204-29.702-42.431-54.099-72.839-67.536 0-0.707-1.768-1.414-2.476-2.121-30.055-12.729-66.122-16.265-100.773-8.133-35.006 8.486-67.889 28.641-91.227 57.636 1.061-3.536 9.901-10.254 10.255-13.083-10.254 10.961-21.215 25.459-28.641 41.016-7.779 15.558-12.022 31.47-13.79 43.138" fill="#7b8159" data-fill-palette-color="tertiary"></path></g><g transform="matrix(1,0,0,1,48.000000000000014,144.90619564588144)"><svg viewBox="0 0 223.99999999999997 70.1876087082371" height="70.1876087082371" width="223.99999999999997"><g><svg viewBox="0 0 223.99999999999997 70.1876087082371" height="70.1876087082371" width="223.99999999999997"><g><svg viewBox="0 0 223.99999999999997 70.1876087082371" height="70.1876087082371" width="223.99999999999997"><g><svg viewBox="0 0 223.99999999999997 70.1876087082371" height="70.1876087082371" width="223.99999999999997"><g><svg viewBox="0 0 223.99999999999997 70.1876087082371" height="70.1876087082371" width="223.99999999999997"><g><svg viewBox="0 0 223.99999999999997 39.79060816012316" height="39.79060816012316" width="223.99999999999997"><g transform="matrix(1,0,0,1,0,0)"><svg width="223.99999999999997" viewBox="3.95 -35.4 259.78000000000003 46.15" height="39.79060816012316" data-palette-color="#372e18"><path d="M9.5 0L3.95 0 3.95-34.25 13.6-34.25 21.25-7.5 28.9-34.25 38.6-34.25 38.6 0 33 0 33-28.1 32.25-28.1 24.15-1.4 18.35-1.4 10.25-28.1 9.5-28.1 9.5 0ZM64.3-17.3L64.3-17.3 64.3-5.9Q64.35-4.8 64.87-4.28 65.4-3.75 66.5-3.6L66.5-3.6 66.35 0.55Q62.05 0.55 59.7-1.3L59.7-1.3Q55.7 0.55 51.65 0.55L51.65 0.55Q44.2 0.55 44.2-7.4L44.2-7.4Q44.2-11.2 46.22-12.9 48.25-14.6 52.45-14.95L52.45-14.95 58.9-15.5 58.9-17.3Q58.9-19.3 58.02-20.1 57.15-20.9 55.45-20.9L55.45-20.9Q52.25-20.9 47.45-20.5L47.45-20.5 45.85-20.4 45.65-24.25Q51.1-25.55 55.67-25.55 60.25-25.55 62.27-23.58 64.3-21.6 64.3-17.3ZM58.9-11.65L53.1-11.1Q49.65-10.8 49.65-7.35 49.65-3.9 52.7-3.9L52.7-3.9Q55.2-3.9 58-4.7L58-4.7 58.9-5 58.9-11.65ZM76.59 0L71.14 0 71.14-25 76.55-25 76.55-22Q80.8-24.75 85.05-25.55L85.05-25.55 85.05-20.1Q80.75-19.25 77.69-17.9L77.69-17.9 76.59-17.45 76.59 0ZM94.64-10.2L94.64 0 89.19 0 89.19-35.4 94.64-35.4 94.64-14.95 97.74-15.25 103.64-25 109.74-25 102.54-13.3 110.14 0 103.99 0 97.89-10.55 94.64-10.2ZM131.39-4.5L131.39-4.5 132.79-4.65 132.89-0.6Q127.19 0.55 122.79 0.55L122.79 0.55Q117.24 0.55 114.82-2.5 112.39-5.55 112.39-12.25L112.39-12.25Q112.39-25.55 123.24-25.55L123.24-25.55Q133.74-25.55 133.74-14.1L133.74-14.1 133.39-10.2 117.89-10.2Q117.94-7.1 119.24-5.65 120.54-4.2 124.09-4.2 127.64-4.2 131.39-4.5ZM117.84-14.4L128.39-14.4Q128.39-18.1 127.22-19.58 126.04-21.05 123.24-21.05 120.44-21.05 119.17-19.5 117.89-17.95 117.84-14.4L117.84-14.4ZM152.44-25L152.44-20.35 145.54-20.35 145.54-9.35Q145.54-6.3 145.99-5.3 146.44-4.3 148.29-4.3L148.29-4.3 152.39-4.45 152.64-0.1Q149.29 0.55 147.54 0.55L147.54 0.55Q143.29 0.55 141.71-1.4 140.14-3.35 140.14-8.75L140.14-8.75 140.14-20.35 136.94-20.35 136.94-25 140.14-25 140.14-32.25 145.54-32.25 145.54-25 152.44-25ZM162.34 10.75L156.89 10.75 156.89-25 162.28-25 162.28-23.45Q165.74-25.55 168.74-25.55L168.74-25.55Q173.69-25.55 175.99-22.53 178.29-19.5 178.29-12.38 178.29-5.25 175.66-2.35 173.04 0.55 167.09 0.55L167.09 0.55Q165.03 0.55 162.34 0.1L162.34 0.1 162.34 10.75ZM167.78-20.7L167.78-20.7Q165.44-20.7 163.09-19.65L163.09-19.65 162.34-19.3 162.34-4.55Q164.34-4.15 166.74-4.15L166.74-4.15Q170.14-4.15 171.44-6.1 172.74-8.05 172.74-12.75L172.74-12.75Q172.74-20.7 167.78-20.7ZM189.48 0L184.03 0 184.03-35.4 189.48-35.4 189.48 0ZM214.88-17.3L214.88-17.3 214.88-5.9Q214.93-4.8 215.46-4.28 215.98-3.75 217.08-3.6L217.08-3.6 216.93 0.55Q212.63 0.55 210.28-1.3L210.28-1.3Q206.28 0.55 202.23 0.55L202.23 0.55Q194.78 0.55 194.78-7.4L194.78-7.4Q194.78-11.2 196.81-12.9 198.83-14.6 203.03-14.95L203.03-14.95 209.48-15.5 209.48-17.3Q209.48-19.3 208.61-20.1 207.73-20.9 206.03-20.9L206.03-20.9Q202.83-20.9 198.03-20.5L198.03-20.5 196.43-20.4 196.23-24.25Q201.68-25.55 206.26-25.55 210.83-25.55 212.86-23.58 214.88-21.6 214.88-17.3ZM209.48-11.65L203.68-11.1Q200.23-10.8 200.23-7.35 200.23-3.9 203.28-3.9L203.28-3.9Q205.78-3.9 208.58-4.7L208.58-4.7 209.48-5 209.48-11.65ZM231.08-25.55L231.08-25.55Q233.73-25.55 237.33-24.85L237.33-24.85 238.58-24.6 238.38-20.3Q234.43-20.7 232.53-20.7L232.53-20.7Q228.73-20.7 227.43-19 226.13-17.3 226.13-12.6 226.13-7.9 227.38-6.1 228.63-4.3 232.58-4.3L232.58-4.3 238.43-4.7 238.58-0.35Q233.53 0.55 230.98 0.55L230.98 0.55Q225.28 0.55 222.95-2.53 220.63-5.6 220.63-12.6 220.63-19.6 223.08-22.58 225.53-25.55 231.08-25.55ZM261.38-4.5L261.38-4.5 262.77-4.65 262.88-0.6Q257.18 0.55 252.78 0.55L252.78 0.55Q247.22 0.55 244.8-2.5 242.38-5.55 242.38-12.25L242.38-12.25Q242.38-25.55 253.22-25.55L253.22-25.55Q263.73-25.55 263.73-14.1L263.73-14.1 263.38-10.2 247.88-10.2Q247.93-7.1 249.22-5.65 250.53-4.2 254.08-4.2 257.63-4.2 261.38-4.5ZM247.83-14.4L258.38-14.4Q258.38-18.1 257.2-19.58 256.02-21.05 253.22-21.05 250.43-21.05 249.15-19.5 247.88-17.95 247.83-14.4L247.83-14.4Z" opacity="1" transform="matrix(1,0,0,1,0,0)" fill="#7b8159" class="undefined-text-0" data-fill-palette-color="primary" id="text-0"></path></svg></g></svg></g><g transform="matrix(1,0,0,1,0,45.59701286528097)"><svg viewBox="0 0 223.99999999999997 24.590595842956116" height="24.590595842956116" width="223.99999999999997"><g transform="matrix(1,0,0,1,0,0)"><svg width="223.99999999999997" viewBox="2.35 -35.9 406.27 44.599999999999994" height="24.590595842956116" data-palette-color="#372e18"><path d="M11.4-3.05L11.4-3.05Q14.1-3.05 15.7-4.58 17.3-6.1 17.3-8.45L17.3-8.45 17.3-11.7 12.9-11.7Q9.7-11.7 8.1-10.45 6.5-9.2 6.5-7.3 6.5-5.4 7.75-4.23 9-3.05 11.4-3.05ZM17.35 0L17.35-3Q15.4 0.25 10.25 0.25L10.25 0.25Q6.7 0.25 4.53-1.85 2.35-3.95 2.35-7.15L2.35-7.15Q2.35-10.8 5.13-12.83 7.9-14.85 12.7-14.85L12.7-14.85 17.3-14.85 17.3-16.15Q17.3-19.15 15.95-20.68 14.6-22.2 11.4-22.2L11.4-22.2Q7.35-22.2 4.2-20.05L4.2-20.05 4.2-24Q7.05-25.75 11.7-25.75L11.7-25.75Q21.25-25.75 21.25-16.05L21.25-16.05 21.25 0 17.35 0ZM76.2-17.45L76.2 0 72.25 0 72.25-16.4Q72.25-19.2 70.82-20.68 69.4-22.15 67.1-22.15L67.1-22.15Q64.25-22.15 62.17-19.95 60.1-17.75 60.1-13.85L60.1-13.85 60.1 0 56.2 0 56.2-25.35 60.1-25.35 60.1-20.95Q62.35-25.7 68.1-25.7L68.1-25.7Q71.8-25.7 74-23.45 76.2-21.2 76.2-17.45L76.2-17.45ZM118.89-3.05L118.89-3.05Q121.59-3.05 123.19-4.58 124.79-6.1 124.79-8.45L124.79-8.45 124.79-11.7 120.39-11.7Q117.19-11.7 115.59-10.45 113.99-9.2 113.99-7.3 113.99-5.4 115.24-4.23 116.49-3.05 118.89-3.05ZM124.84 0L124.84-3Q122.89 0.25 117.74 0.25L117.74 0.25Q114.19 0.25 112.02-1.85 109.84-3.95 109.84-7.15L109.84-7.15Q109.84-10.8 112.62-12.83 115.39-14.85 120.19-14.85L120.19-14.85 124.79-14.85 124.79-16.15Q124.79-19.15 123.44-20.68 122.09-22.2 118.89-22.2L118.89-22.2Q114.84-22.2 111.69-20.05L111.69-20.05 111.69-24Q114.54-25.75 119.19-25.75L119.19-25.75Q128.74-25.75 128.74-16.05L128.74-16.05 128.74 0 124.84 0ZM167.84-35.35L167.84 0 163.89 0 163.89-35.35 167.84-35.35ZM223.43-25.35L214.28-0.65Q212.33 4.5 209.66 6.6 206.98 8.7 203.53 8.7L203.53 8.7Q202.23 8.7 201.43 8.45L201.43 8.45 201.43 4.9Q202.18 5.1 203.13 5.1L203.13 5.1Q208.18 5.1 210.28-0.65L210.28-0.65 200.03-25.35 204.48-25.35 207.78-17 212.23-5.5Q212.63-6.8 216.23-17L216.23-17 219.18-25.35 223.43-25.35ZM268.58-4.4L268.58-0.65Q266.93 0.25 264.88 0.25L264.88 0.25Q257.38 0.25 257.38-7.4L257.38-7.4 257.38-22.15 253.33-22.15 253.33-25.35 257.38-25.35 257.38-31.65 261.33-31.65 261.33-25.35 268.33-25.35 268.33-22.15 261.33-22.15 261.33-7.3Q261.33-3.25 265.13-3.25L265.13-3.25Q267.08-3.25 268.58-4.4L268.58-4.4ZM306.43-25.35L306.43 0 302.48 0 302.48-25.35 306.43-25.35ZM306.28-35.15Q307.03-34.4 307.03-33.3 307.03-32.2 306.28-31.48 305.53-30.75 304.43-30.75 303.33-30.75 302.6-31.48 301.88-32.2 301.88-33.3 301.88-34.4 302.6-35.15 303.33-35.9 304.43-35.9 305.53-35.9 306.28-35.15ZM359.32-4.65L359.32-0.9Q356.92 0.55 353.42 0.55L353.42 0.55Q347.42 0.55 343.9-3.28 340.37-7.1 340.37-12.6L340.37-12.6Q340.37-18 343.9-21.9 347.42-25.8 353.52-25.8L353.52-25.8Q356.77-25.8 359.32-24.4L359.32-24.4 359.32-20.65Q357.02-22.2 353.92-22.2L353.92-22.2Q349.62-22.2 347.05-19.43 344.47-16.65 344.47-12.55L344.47-12.55Q344.52-8.45 346.97-5.73 349.42-3 353.92-3L353.92-3Q356.82-3 359.32-4.65L359.32-4.65ZM408.62-6.75L408.62-6.75Q408.62-3.5 406.34-1.6 404.07 0.3 400.12 0.3L400.12 0.3Q395.52 0.3 392.67-1.25L392.67-1.25 392.67-5.1Q396.02-3.1 399.87-3.1L399.87-3.1Q402.17-3.1 403.37-4 404.57-4.9 404.57-6.45L404.57-6.45Q404.57-8.25 403.24-9.25 401.92-10.25 398.82-11.5L398.82-11.5Q395.97-12.6 394.24-14.25 392.52-15.9 392.52-18.7L392.52-18.7Q392.52-21.85 394.89-23.73 397.27-25.6 400.82-25.6L400.82-25.6Q404.77-25.6 407.17-24.5L407.17-24.5 407.17-20.75Q404.87-22.15 400.87-22.15L400.87-22.15Q398.87-22.15 397.69-21.23 396.52-20.3 396.52-18.85L396.52-18.85Q396.52-17.95 396.87-17.28 397.22-16.6 398.24-15.95 399.27-15.3 399.74-15.08 400.22-14.85 401.82-14.15L401.82-14.15Q405.02-12.85 406.82-11.2 408.62-9.55 408.62-6.75Z" opacity="1" transform="matrix(1,0,0,1,0,0)" fill="#7b8159" class="undefined-text-1" data-fill-palette-color="secondary" id="text-1"></path></svg></g></svg></g></svg></g></svg></g><g></g></svg></g></svg></g></svg></g></svg></g></svg><rect width="320" height="360" fill="transparent" stroke="transparent"></rect></g></svg></g></svg>
